<?xml version="1.0" encoding="UTF-8" standalone="no"?>
<svg
   viewBox="0 0 1200 550"
   version="1.1"
   id="svg18"
   inkscape:version="1.4.3 (0d15f75, 2025-12-25)"
   xmlns:inkscape="http://www.inkscape.org/namespaces/inkscape"
   xmlns:sodipodi="http://sodipodi.sourceforge.net/DTD/sodipodi-0.dtd"
   xmlns:xlink="http://www.w3.org/1999/xlink"
   xmlns="http://www.w3.org/2000/svg"
   xmlns:svg="http://www.w3.org/2000/svg">
  <defs
     id="defs18">
  </defs>
  <style
     id="style1">
    .text { font-family: Arial, sans-serif; font-size: 21px; fill: #333; text-anchor: middle; }
    .text-tech { font-family: &quot;Courier New&quot;, Courier, monospace; font-size: 17px; fill: #d63384; font-weight: bold; text-anchor: middle; }
    .text-bold { font-weight: bold; }
    .line-blue { stroke: #5bc0de; stroke-width: 4; fill: none; stroke-linecap: round; }
    .line-red { stroke: #b0413e; stroke-width: 4; fill: none; stroke-linecap: round; }
    .dashed-blue { stroke: #5bc0de; stroke-width: 2; stroke-dasharray: 5,5; }
    .dashed-black { stroke: #000; stroke-width: 2; stroke-dasharray: 5,5; }
    .dashed-red { stroke: #b0413e; stroke-width: 2; stroke-dasharray: 5,5; }
    .brace { stroke: #5bc0de; stroke-width: 2; fill: none; }
    .brace-red { stroke: #b0413e; stroke-width: 2; fill: none; }
  </style>
  <line
     x1="80"
     y1="250"
     x2="80"
     y2="360"
     class="dashed-blue"
     id="line1" />
  <line
     x1="280"
     y1="250"
     x2="280"
     y2="360"
     class="dashed-blue"
     id="line2" />
  <line
     x1="450"
     y1="130"
     x2="450"
     y2="360"
     class="dashed-blue"
     id="line3" />
  <line
     x1="680"
     y1="130"
     x2="680"
     y2="360"
     class="dashed-black"
     id="line4"
     style="opacity:1;fill:#d8c4c4;fill-opacity:1;stroke:#ebdbdb;stroke-opacity:1" />
  <line
     x1="920"
     y1="130"
     x2="920"
     y2="360"
     class="dashed-red"
     id="line5" />
  <line
     x1="1120"
     y1="130"
     x2="1120"
     y2="360"
     class="dashed-red"
     id="line6"
     style="display:inline;mix-blend-mode:normal" />
  <text
     x="80"
     y="380"
     class="text-tech"
     id="text6"
     style="fill:#e996bf;fill-opacity:1">startTime</text>
  <text
     x="280"
     y="405"
     class="text-tech"
     id="text7"
     style="fill:#e995bf;fill-opacity:1">loadIncrease.startTime</text>
  <text
     x="450"
     y="380"
     class="text-tech"
     id="text8"
     style="fill:#e995bf;fill-opacity:1">loadIncrease.stopTime</text>
  <text
     x="680"
     y="405"
     class="text-tech"
     id="text9"
     style="fill:#e996c2;fill-opacity:1">margin-calculation-start-time</text>
  <text
     x="920"
     y="380"
     class="text-tech"
     id="text10"
     style="fill:#e996bf;fill-opacity:1">contingencies-start-time</text>
  <text
     x="1120"
     y="405"
     class="text-tech"
     id="text11"
     style="fill:#e996bf;fill-opacity:1">stopTime</text>
  <path
     d="M 80,250 L 280,250 L 450,130 L 680,130"
     class="line-blue"
     id="path11" />
  <path
     d="M 680,130 L 920,130 L 935,80 L 950,180 L 970,110 L 990,140 L 1120,130"
     class="line-red"
     id="path12" />
  <text
     x="180"
     y="290"
     class="text"
     id="text12"
     style="fill:#cccccc;fill-opacity:1">Stabilization before<tspan
   x="180"
   dy="18"
   id="tspan12"
   style="fill:#cccccc;fill-opacity:1">load increase</tspan></text>
  <text
      x="365"
      y="290"
      class="text"
      id="text13"
      style="fill:#cccccc;fill-opacity:1">Load<tspan
  x="365"
  dy="18"
  id="tspan3">increase</tspan></text>
  <text
     x="565"
     y="290"
     class="text"
     style="fill:#cccccc;fill-opacity:1"
     id="text14">Load increase<tspan
          x="565"
          dy="18"
          id="tspan14">stabilization</tspan></text>
  <text
     x="800"
     y="290"
     class="text"
     id="text15"
     style="fill:#cccccc;fill-opacity:1">Stabilization<tspan
   x="800"
   dy="18"
   id="tspan14"
   style="fill:#cccccc;fill-opacity:1">before event</tspan></text>
  <text
     x="1020"
     y="290"
     class="text"
     id="text16"
     style="fill:#cccccc;fill-opacity:1">Time after event</text>
  <path
     d="M 80,430 Q 80,450 220,450 L 330,450 Q 380,450 380,470 Q 380,450 430,450 L 580,450 Q 680,450 680,430"
     class="brace"
     id="path16" />
  <text
     x="380"
     y="495"
     class="text"
     style="fill:#8acee4;fill-opacity:1"
     id="text17">Load increase duration</text>
  <path
     d="M 685,430 Q 685,450 820,450 L 860,450 Q 900,450 900,470 Q 900,450 940,450 L 980,450 Q 1120,450 1120,430"
     class="brace-red"
     id="path17" />
  <text
     x="900"
     y="495"
     class="text"
     style="fill:#e1aead;fill-opacity:1"
     id="text18">Scenario duration</text>
</svg>
